Coordinates
version=1
nRows=12
nColumns=34
inDegrees=yes

Units are S.I. units (second, meters, Newtons, ...)
If the header above contains a line with 'inDegrees', this indicates whether rotational values are in degrees (yes) or radians (no).

endheader
time	pelvis_tilt	pelvis_list	pelvis_rotation	pelvis_tx	pelvis_ty	pelvis_tz	hip_flexion_r	hip_adduction_r	hip_rotation_r	knee_angle_r	ankle_angle_r	subtalar_angle_r	mtp_angle_r	hip_flexion_l	hip_adduction_l	hip_rotation_l	knee_angle_l	ankle_angle_l	subtalar_angle_l	mtp_angle_l	lumbar_extension	lumbar_bending	lumbar_rotation	arm_flex_r	arm_add_r	arm_rot_r	elbow_flex_r	pro_sup_r	arm_flex_l	arm_add_l	arm_rot_l	elbow_flex_l	pro_sup_l
     11.00000000	     -1.44405135	    -10.94326922	      4.02568519	      2.11892973	      0.99664745	     -0.22765089	     -5.07769454	      6.75924114	      9.33829778	     15.10250819	      6.75139702	     -7.36274353	      0.00000000	     13.40545949	    -10.74401069	    -14.28393443	      0.00000000	      2.33112849	     21.79082071	      0.00000000	    -11.68008020	     13.89113297	      2.26477594	     -0.05060372	    -10.79095253	    -12.63789046	     31.85931193	     66.16141339	    -14.42067131	     -7.01255413	    -36.23255309	     11.07436492	     71.86680044
     11.01666670	     -0.75466600	    -11.62274885	      3.47638325	      2.13078660	      0.99600041	     -0.23300603	     -4.32357369	      6.99578252	     11.65427891	     19.22437477	      9.82433291	    -10.47940197	      0.00000000	     11.99009264	    -11.20298520	    -13.89659640	      0.00000000	      0.90120606	     19.71205642	      0.00000000	    -12.95365659	     14.37326126	      3.89073277	     -0.42500518	    -10.79479433	    -13.93239277	     31.40774305	     65.45569614	    -12.94857675	     -6.87894927	    -38.09915355	     10.77608972	     72.70159110
     11.03333330	     -0.38261389	    -11.30662922	      2.64082431	      2.14353240	      0.99374590	     -0.23869926	     -3.91622722	      6.11814213	     12.14115968	     21.73896671	     12.76161678	    -12.81237255	      0.00000000	     10.47820944	    -10.64009481	    -14.44471404	      0.00000000	      0.59007644	     18.20046166	      0.00000000	    -13.50139639	     13.65691630	      4.09164650	     -0.17943367	    -10.41649169	    -14.33981705	     31.18267203	     65.23009338	    -12.50138498	     -7.02012174	    -38.87626369	     10.73905088	     73.04364534
     11.05000000	     -0.22951424	    -10.30489608	      2.02516334	      2.15755333	      0.99135310	     -0.24500570	     -4.32946958	      4.63304688	     10.98425965	     22.83436288	     15.88260483	    -14.09679026	      0.00000000	      9.03968934	     -9.25758959	    -13.67662439	      0.00000000	      0.49161561	     15.27467514	      0.00000000	    -13.20820363	     12.27161131	      4.15347370	     -0.16236218	     -9.61040477	    -16.32165684	     29.61471637	     64.32053024	    -11.66624690	     -7.19416237	    -43.48636541	     10.96956006	     74.84519795
     11.06666670	     -0.20681779	     -8.76441856	      0.84806885	      2.17103064	      0.99116814	     -0.24907267	     -5.01664059	      2.68653301	      9.13136388	     23.67570302	     20.51676988	    -13.11943425	      0.00000000	      7.52987604	     -7.40074687	    -14.53854045	      0.00000000	      0.96089041	     13.82908348	      0.00000000	    -12.78707105	     10.08646039	      4.21481190	     -0.30676795	     -8.89921379	    -16.35482074	     28.90557378	     64.23721057	    -11.36569708	     -7.81820178	    -46.71260844	     11.92057444	     76.39223476
     11.08333330	     -0.70196927	     -7.12331707	     -0.02115764	      2.18310055	      0.99206508	     -0.25141674	     -5.37451520	      0.84929099	      7.22956781	     23.84559142	     24.20873865	    -12.44796611	      0.00000000	      6.84596115	     -5.33677773	    -14.22764554	      0.00000000	      1.24396500	     11.27353769	      0.00000000	    -11.48247537	      8.00827236	      3.68338765	     -0.38174619	     -8.20062613	    -16.63208683	     27.64614745	     64.25369759	    -10.98466958	     -8.39121357	    -50.46956130	     12.53629250	     78.21610441
     11.10000000	     -1.16088992	     -5.86276684	     -0.73184639	      2.19329391	      0.99382224	     -0.25237965	     -5.10794094	     -0.46635924	      6.31398489	     24.48224426	     27.29656546	    -12.02556491	      0.00000000	      6.42694848	     -3.70037699	    -14.05913822	      0.00000000	      1.09484132	      9.38495694	      0.00000000	    -10.39572018	      6.41067590	      2.57482686	      0.01853265	     -7.43813212	    -16.44116329	     26.60564672	     65.11430139	    -10.37243358	     -8.20378248	    -61.70855007	     14.33014541	     85.04804216
     11.11666670	     -1.00890450	     -5.49179600	     -1.41457026	      2.20206524	      0.99786094	     -0.25309745	     -4.66017034	     -0.78641302	      7.11804533	     25.48595191	     27.94019272	    -13.04540848	      0.00000000	      5.55813377	     -3.05058334	    -14.48004894	      0.00000000	      1.55810427	      8.53539567	      0.00000000	    -10.56676996	      5.83249185	      3.12996408	     -0.12379202	     -7.20924382	    -16.23508955	     25.95305776	     65.21445675	     -8.71315718	     -8.80027099	    -61.80388900	     15.00226399	     85.68592727
     11.13333330	     -0.89935563	     -5.94071321	     -1.46537168	      2.21027361	      1.00263918	     -0.25531623	     -3.61500706	     -0.36640625	      7.61156886	     26.59530147	     26.27965389	    -12.47813088	      0.00000000	      4.96835030	     -3.27019705	    -14.34346425	      0.00000000	      1.60605364	      8.37279477	      0.00000000	    -10.69962164	      6.25274476	      2.50939915	      0.12614943	     -6.88634777	    -16.13558780	     25.79233719	     65.24912586	     -7.14344224	     -9.09432573	    -61.73822803	     15.48216782	     85.84290503
     11.15000000	     -1.17316526	     -6.69665976	     -1.66828999	      2.21912933	      1.00593130	     -0.25699454	     -2.86926254	      0.82707509	      9.75244956	     26.07756762	     20.33181051	    -14.73956378	      0.00000000	      4.74620904	     -3.88370203	    -13.88443991	      0.00000000	      0.95387887	      6.92097896	      0.00000000	    -10.38511300	      6.88714311	      2.52378506	      0.54608449	     -6.94814053	    -15.47289665	     23.76905461	     65.74075802	     -5.18577613	     -9.16337805	    -62.28426019	     16.77458682	     87.71571774
     11.16666670	     -2.09809341	     -6.97962001	     -1.78427302	      2.22995454	      1.00556442	     -0.25790919	     -2.81653033	      1.40097703	     10.30998085	     23.03240842	     14.19379055	    -14.15109369	      0.00000000	      5.09146523	     -4.08977231	    -14.21963345	      0.00000000	      1.13236100	      7.77565466	      0.00000000	     -8.92779880	      6.98021063	      0.96787158	      1.17986428	     -6.84066535	    -12.38752389	     21.99845471	     69.16263140	     -4.48050908	     -9.11718897	    -66.94725111	     18.95965062	    100.69225111
     11.18333330	     -2.82890310	     -6.62513547	     -2.02601517	      2.24022723	      1.00213987	     -0.25807392	     -3.89832161	      1.13678726	      9.74582119	     18.17092597	      9.60157980	    -11.68242366	      0.00000000	      5.16933042	     -3.66737722	    -14.56425422	      0.00000000	      1.23879062	      7.79121928	      0.00000000	     -7.95752253	      6.31160879	      0.61573428	      0.81709404	     -6.38107739	    -12.62854498	     21.77607797	     69.11789601	     -2.93874788	     -9.67779205	    -66.80239861	     19.91179976	    100.95452953
